<svg xmlns="http://www.w3.org/2000/svg" width="90" height="90">
    <path fill="#FFF" fill-rule="evenodd" d="M59.998 35.84a11.712 11.712 0 0 1-3.418.954 6.054 6.054 0 0 0 2.616-3.353 11.777 11.777 0 0 1-3.779 1.471 5.895 5.895 0 0 0-4.343-1.913c-3.286 0-5.951 2.713-5.951 6.059 0 .474.053.937.155 1.381-4.946-.253-9.332-2.665-12.267-6.331a6.113 6.113 0 0 0-.805 3.047 6.085 6.085 0 0 0 2.647 5.043 5.858 5.858 0 0 1-2.696-.759v.077c0 2.935 2.051 5.384 4.774 5.941a5.882 5.882 0 0 1-2.688.103c.758 2.407 2.955 4.16 5.559 4.208a11.8 11.8 0 0 1-8.81 2.509A16.622 16.622 0 0 0 40.114 57c10.946 0 16.931-9.233 16.931-17.24 0-.262-.005-.525-.016-.785a12.189 12.189 0 0 0 2.969-3.135z"/>
    <path fill="none" d="M0 0h90v90H0V0z" opacity=".502"/>
</svg>
